<svg xmlns="http://www.w3.org/2000/svg" viewBox="20 20 115 90" fill="none">
	<path fill="oklch(.81 .1271 225.99 / 25%)" d="M92 20H40v6h52zm0 62H40v6h52zM20 40h6v28h-6zm92 0h-6v28h6z" />
	<path fill="oklch(.81 .1271 225.99)" d="M28 20h14v6H28a2 2 0 0 0-2 2v14h-6V28a8 8 0 0 1 8-8m62 0v6h14a2 2 0 0 1 2 2v14h6V28a8 8 0 0 0-8-8zm14 62H90v6h14a8 8 0 0 0 8-8V66h-6v14a2 2 0 0 1-2 2m-78-2V66h-6v14a8 8 0 0 0 8 8h14v-6H28a2 2 0 0 1-2-2m43-38h-6v9h-9v6h9v9h6v-9h9v-6h-9zm43.608 48.229 4.578 16.787c.306 1.121 1.807 1.328 2.405.332L124 100l7.348-4.409c.996-.598.789-2.099-.332-2.405l-16.787-4.578a1.32 1.32 0 0 0-1.621 1.62" />
</svg>
